<svg width="249" height="90" viewBox="0 0 249 90" fill="none" xmlns="http://www.w3.org/2000/svg">
<g filter="url(#filter0_d_7_7)">
<rect x="4" width="82" height="82" rx="16" fill="#2667FF"/>
</g>
<g filter="url(#filter1_d_7_7)">
<path d="M105.636 65.6818C102.106 65.6818 99.053 64.9318 96.4773 63.4318C93.9167 61.9167 91.9394 59.8106 90.5455 57.1136C89.1515 54.4015 88.4545 51.2576 88.4545 47.6818C88.4545 44.0758 89.1515 40.9242 90.5455 38.2273C91.9394 35.5152 93.9167 33.4091 96.4773 31.9091C99.053 30.3939 102.106 29.6364 105.636 29.6364C109.167 29.6364 112.212 30.3939 114.773 31.9091C117.348 33.4091 119.333 35.5152 120.727 38.2273C122.121 40.9242 122.818 44.0758 122.818 47.6818C122.818 51.2576 122.121 54.4015 120.727 57.1136C119.333 59.8106 117.348 61.9167 114.773 63.4318C112.212 64.9318 109.167 65.6818 105.636 65.6818ZM105.682 58.1818C107.288 58.1818 108.629 57.7273 109.705 56.8182C110.78 55.8939 111.591 54.6364 112.136 53.0455C112.697 51.4545 112.977 49.6439 112.977 47.6136C112.977 45.5833 112.697 43.7727 112.136 42.1818C111.591 40.5909 110.78 39.3333 109.705 38.4091C108.629 37.4848 107.288 37.0227 105.682 37.0227C104.061 37.0227 102.697 37.4848 101.591 38.4091C100.5 39.3333 99.6742 40.5909 99.1136 42.1818C98.5682 43.7727 98.2955 45.5833 98.2955 47.6136C98.2955 49.6439 98.5682 51.4545 99.1136 53.0455C99.6742 54.6364 100.5 55.8939 101.591 56.8182C102.697 57.7273 104.061 58.1818 105.682 58.1818ZM129.295 65V18.4545H138.977V35.9545H139.273C139.697 35.0152 140.311 34.0606 141.114 33.0909C141.932 32.1061 142.992 31.2879 144.295 30.6364C145.614 29.9697 147.25 29.6364 149.205 29.6364C151.75 29.6364 154.098 30.303 156.25 31.6364C158.402 32.9545 160.121 34.947 161.409 37.6136C162.697 40.2652 163.341 43.5909 163.341 47.5909C163.341 51.4848 162.712 54.7727 161.455 57.4545C160.212 60.1212 158.515 62.1439 156.364 63.5227C154.227 64.8864 151.833 65.5682 149.182 65.5682C147.303 65.5682 145.705 65.2576 144.386 64.6364C143.083 64.0152 142.015 63.2348 141.182 62.2955C140.348 61.3409 139.712 60.3788 139.273 59.4091H138.841V65H129.295ZM138.773 47.5455C138.773 49.6212 139.061 51.4318 139.636 52.9773C140.212 54.5227 141.045 55.7273 142.136 56.5909C143.227 57.4394 144.553 57.8636 146.114 57.8636C147.689 57.8636 149.023 57.4318 150.114 56.5682C151.205 55.6894 152.03 54.4773 152.591 52.9318C153.167 51.3712 153.455 49.5758 153.455 47.5455C153.455 45.5303 153.174 43.7576 152.614 42.2273C152.053 40.697 151.227 39.5 150.136 38.6364C149.045 37.7727 147.705 37.3409 146.114 37.3409C144.538 37.3409 143.205 37.7576 142.114 38.5909C141.038 39.4242 140.212 40.6061 139.636 42.1364C139.061 43.6667 138.773 45.4697 138.773 47.5455ZM169.801 65V30.0909H179.483V65H169.801ZM174.665 25.5909C173.225 25.5909 171.991 25.1136 170.96 24.1591C169.945 23.1894 169.438 22.0303 169.438 20.6818C169.438 19.3485 169.945 18.2045 170.96 17.25C171.991 16.2803 173.225 15.7955 174.665 15.7955C176.104 15.7955 177.331 16.2803 178.347 17.25C179.377 18.2045 179.892 19.3485 179.892 20.6818C179.892 22.0303 179.377 23.1894 178.347 24.1591C177.331 25.1136 176.104 25.5909 174.665 25.5909ZM206.011 30.0909V37.3636H184.466V30.0909H206.011ZM189.398 65V27.5682C189.398 25.0379 189.89 22.9394 190.875 21.2727C191.875 19.6061 193.239 18.3561 194.966 17.5227C196.693 16.6894 198.655 16.2727 200.852 16.2727C202.337 16.2727 203.693 16.3864 204.92 16.6136C206.163 16.8409 207.087 17.0455 207.693 17.2273L205.966 24.5C205.587 24.3788 205.117 24.2651 204.557 24.1591C204.011 24.053 203.451 24 202.875 24C201.451 24 200.458 24.3333 199.898 25C199.337 25.6515 199.057 26.5682 199.057 27.75V65H189.398ZM217.903 78.0909C216.676 78.0909 215.525 77.9924 214.449 77.7955C213.388 77.6136 212.509 77.3788 211.812 77.0909L213.994 69.8636C215.131 70.2121 216.153 70.4015 217.062 70.4318C217.987 70.4621 218.782 70.25 219.449 69.7955C220.131 69.3409 220.684 68.5682 221.108 67.4773L221.676 66L209.153 30.0909H219.335L226.562 55.7273H226.926L234.222 30.0909H244.472L230.903 68.7727C230.252 70.6515 229.366 72.2879 228.244 73.6818C227.138 75.0909 225.737 76.1742 224.04 76.9318C222.343 77.7045 220.297 78.0909 217.903 78.0909Z" fill="black"/>
</g>
<g filter="url(#filter2_d_7_7)">
<path d="M50.6818 18.4545H60.4091V50.9091C60.4091 53.9091 59.7348 56.5152 58.3864 58.7273C57.053 60.9394 55.197 62.6439 52.8182 63.8409C50.4394 65.0379 47.6742 65.6364 44.5227 65.6364C41.7197 65.6364 39.1742 65.1439 36.8864 64.1591C34.6136 63.1591 32.8106 61.6439 31.4773 59.6136C30.1439 57.5682 29.4848 55 29.5 51.9091H39.2955C39.3258 53.1364 39.5758 54.1894 40.0455 55.0682C40.5303 55.9318 41.1894 56.5985 42.0227 57.0682C42.8712 57.5227 43.8712 57.75 45.0227 57.75C46.2348 57.75 47.2576 57.4924 48.0909 56.9773C48.9394 56.447 49.5833 55.6742 50.0227 54.6591C50.4621 53.6439 50.6818 52.3939 50.6818 50.9091V18.4545Z" fill="white"/>
</g>
<defs>
<filter id="filter0_d_7_7" x="0" y="0" width="90" height="90" filterUnits="userSpaceOnUse" color-interpolation-filters="sRGB">
<feFlood flood-opacity="0" result="BackgroundImageFix"/>
<feColorMatrix in="SourceAlpha" type="matrix" values="0 0 0 0 0 0 0 0 0 0 0 0 0 0 0 0 0 0 127 0" result="hardAlpha"/>
<feOffset dy="4"/>
<feGaussianBlur stdDeviation="2"/>
<feComposite in2="hardAlpha" operator="out"/>
<feColorMatrix type="matrix" values="0 0 0 0 0 0 0 0 0 0 0 0 0 0 0 0 0 0 0.25 0"/>
<feBlend mode="normal" in2="BackgroundImageFix" result="effect1_dropShadow_7_7"/>
<feBlend mode="normal" in="SourceGraphic" in2="effect1_dropShadow_7_7" result="shape"/>
</filter>
<filter id="filter1_d_7_7" x="84.4545" y="15.7955" width="164.017" height="70.2955" filterUnits="userSpaceOnUse" color-interpolation-filters="sRGB">
<feFlood flood-opacity="0" result="BackgroundImageFix"/>
<feColorMatrix in="SourceAlpha" type="matrix" values="0 0 0 0 0 0 0 0 0 0 0 0 0 0 0 0 0 0 127 0" result="hardAlpha"/>
<feOffset dy="4"/>
<feGaussianBlur stdDeviation="2"/>
<feComposite in2="hardAlpha" operator="out"/>
<feColorMatrix type="matrix" values="0 0 0 0 0 0 0 0 0 0 0 0 0 0 0 0 0 0 0.25 0"/>
<feBlend mode="normal" in2="BackgroundImageFix" result="effect1_dropShadow_7_7"/>
<feBlend mode="normal" in="SourceGraphic" in2="effect1_dropShadow_7_7" result="shape"/>
</filter>
<filter id="filter2_d_7_7" x="25.4773" y="18.4545" width="38.9318" height="55.1818" filterUnits="userSpaceOnUse" color-interpolation-filters="sRGB">
<feFlood flood-opacity="0" result="BackgroundImageFix"/>
<feColorMatrix in="SourceAlpha" type="matrix" values="0 0 0 0 0 0 0 0 0 0 0 0 0 0 0 0 0 0 127 0" result="hardAlpha"/>
<feOffset dy="4"/>
<feGaussianBlur stdDeviation="2"/>
<feComposite in2="hardAlpha" operator="out"/>
<feColorMatrix type="matrix" values="0 0 0 0 0 0 0 0 0 0 0 0 0 0 0 0 0 0 0.25 0"/>
<feBlend mode="normal" in2="BackgroundImageFix" result="effect1_dropShadow_7_7"/>
<feBlend mode="normal" in="SourceGraphic" in2="effect1_dropShadow_7_7" result="shape"/>
</filter>
</defs>
</svg>
